<svg xmlns="http://www.w3.org/2000/svg" enable-background="new 0 0 512 512" viewBox="0 0 512 512"><path fill="#cdb289" d="M482.8,285.2c0,42.7-11.8,82.6-32.3,116.7c-2.9,4.9-6.1,9.8-9.4,14.4c-1.6,2.3-3.3,4.6-5,6.9
		c-21.9,28.6-50.5,51.8-83.5,67.3c-18,8.5-37.3,14.7-57.6,18.1c-1.6,0.3-3.2,0.6-4.9,0.8c-1.6,0.3-3.3,0.5-4.9,0.7
		c-0.1,0-0.3,0-0.4,0c-2.9,0.4-5.8,0.7-8.8,0.9c-6.6,0.6-13.2,0.9-20,0.9c0,0,0,0-0.1,0c-6.8,0-13.5-0.3-20.1-1
		c-2.9-0.2-5.8-0.5-8.6-0.9c-0.2,0-0.4,0-0.6-0.1c-1.6-0.2-3.3-0.4-4.9-0.7c-1.6-0.2-3.3-0.5-4.9-0.8c-20.3-3.5-39.7-9.8-57.7-18.3
		c-32.8-15.5-61.3-38.6-83.1-67.1c-1.7-2.3-3.5-4.7-5.1-7.1c-3.3-4.6-6.4-9.3-9.3-14.2c-20.5-34-32.3-74-32.3-116.7
		c0-80.3,41.7-150.8,104.5-191.1C169,71.5,211,58.4,256,58.4c45.8,0,88.4,13.6,124.1,36.9C441.9,135.7,482.8,205.7,482.8,285.2z"/><path fill="#ecd8b3" d="M380.2,186.4c11.9,4.5,17.7,14.8,17.7,28.2c0,17.3-14.1,31.4-31.4,31.4c-1.8,0-3.6-0.2-5.3-0.5
			C368.6,228.8,377,210.1,380.2,186.4z"/><path fill="#231f20" d="M325,359H313l-6.8,6.1l-3.5,3.1l-24,21.6l-10.2,9.1l-3.5,3.1l-9.2,8.3l-9.2-8.3l-3.5-3.1l-10.2-9.1l-24-21.6
		l-3.5-3.1l-6.8-6.1h-11.9c0,0-89.2,13.5-116,57.1c1.6,2.4,3.4,4.7,5.1,7.1c21.9,28.5,50.3,51.6,83.1,67.1
		c18,8.5,37.4,14.7,57.7,18.3c1.6,0.3,3.2,0.6,4.9,0.8c1.6,0.3,3.2,0.5,4.9,0.7c0.2,0,0.4,0.1,0.6,0.1c2.9,0.4,5.7,0.7,8.6,0.9
		c6.6,0.7,13.3,1,20.1,1c0,0,0,0,0.1,0c6.8,0,13.4-0.3,20-0.9c2.9-0.2,5.9-0.5,8.8-0.9c0.1,0,0.3,0,0.4,0c1.6-0.2,3.3-0.4,4.9-0.7
		c1.6-0.2,3.2-0.5,4.9-0.8c20.3-3.5,39.6-9.7,57.6-18.1c33-15.5,61.6-38.7,83.5-67.3c1.7-2.3,3.4-4.5,5-6.9
		C414.4,372.6,325,359,325,359z"/><path fill="#dbc49f" d="M131.5,186.4c-11.9,4.5-17.7,14.8-17.7,28.2c0,17.3,14.1,31.4,31.4,31.4c1.8,0,3.6-0.2,5.3-0.5
			C143.2,228.8,134.7,210.1,131.5,186.4z"/><path fill="#231f20" d="M387.9,74.3c-10.3-33.8-19-42.3-26.7-48.9C324.1-6.4,267.3,0.7,254.1,0.6C241,0.7,198.6,3,161.5,34.8
		c-7.7,6.6-30.8,5.7-41.1,39.5c-7.4,24.1-4.9,44.9,0,86.6c2.8,24.1,4.3,36.1,10.1,52c10.9,29.6,28.6,49.8,40.7,61.3l83,7.7l86.6-8
		c12.1-11.5,26.2-31.3,37.1-60.9c5.8-15.9,7.2-27.9,10.1-52C392.8,119.3,395.3,98.4,387.9,74.3z"/><path fill="#dbc49f" d="M255.9,333.5c0,0-140.4-19.9-119.8-232.8h119.8V333.5z"/><ellipse cx="204.8" cy="196.5" fill="#1d1d1d" rx="12.8" ry="14.9"/><path fill="#ecd8b3" d="M255.9,333.5c0,0,140.4-19.9,119.8-232.8H255.9V333.5z"/><ellipse cx="307" cy="196.5" fill="#1d1d1d" rx="12.8" ry="14.9"/><path fill="#fff" d="M302.8,347.2c-15.4,0-45.6,0-46.8,0c0,0-0.1,0-0.1,0c-1.3,0-31.5,0-46.8,0c-15.7,0-22.3,11.8-22.3,11.8
		c26.5,63,67.9,57.3,69.2,57.1c1.3,0.2,42.7,5.9,69.2-57.1C325.1,359,318.5,347.2,302.8,347.2z"/><path fill="#dbc49f" d="M209,312.1v66.5c0,0,13.4,22.9,46.8,22.9v-69.3C255.9,332.1,238.3,318.4,209,312.1z"/><path fill="#ecd8b3" d="M302.7,313.7v64.9c0,0-13.4,22.9-46.8,22.9v-67.7C255.9,333.7,273.5,320.1,302.7,313.7z"/><path fill="#ba9e81" d="M255.9,335.1c-21.7,0-46.8-21.5-46.8-21.5v12.2c14.9,18.3,46.8,21.3,46.8,21.3s31.9-2.9,46.8-21.3v-12.2
		C302.7,313.7,277.6,335.1,255.9,335.1z"/><path fill="#c4c3c3" d="M302.7,378.5c0,0,11.9-14.8,8.7-19.5c0,0-1.3-4.3-8.7-4.3V378.5z"/><path fill="#fff" d="M256,264.1h-22c0.1,0.1,0.2,0.2,0.3,0.3c11.9,11.7,31.4,11.7,43.3,0l0.3-0.3H256z"/><path fill="#231f20" d="M321.4 250.4c-8.7-7.6-44.4-4.2-65.5-1.4-21.1-2.8-56.7-6.2-65.5 1.4-11 9.6-4.8 40.3 10.5 52.2 14.1 11 35.2 22.6 44.3 26.4 3.8 1.6 6.6 2.5 8.8 2.9.5.1 1.1.2 1.6.2.1 0 .1 0 .2 0 .7 0 1.4 0 2-.2 2.2-.4 5-1.3 8.8-2.9 9.2-3.9 30.2-15.5 44.3-26.4C326.2 290.7 332.4 259.9 321.4 250.4zM304.2 296.9c-7.5 5.8-17.3 12-26.1 16.9-1.6-2.3-4.7-21.9-10.4-22h-11.9H244c-5.8.2-8.9 19.7-10.4 22-8.7-5-18.6-11.1-26.1-16.9-12.7-9.9-16.3-35.8-10.1-41.2 1.5-1.3 7.4-2.1 16.6-2.1 10.1 0 24.3 1 41 3.2l.8.1.8-.1c31.9-4.3 54.4-3.9 57.7-1.1C320.5 261.1 316.9 287 304.2 296.9zM136 100.7c0 0 118.5 20.8 154.1 31 32.1 9.2 4.1-20 4.1-20s58.8 33 65.2 26.2-7.3-21.9-7.3-21.9 27.6 11.3 27.5 51.7c-.1 40.5 7.1-47.9 7.1-47.9l-20.9-39.5L136 100.7z"/><path fill="#c4c3c3" d="M209,378.5c0,0-11.9-14.8-8.7-19.5c0,0,1.3-4.3,8.7-4.3V378.5z"/></svg>